<?xml version="1.0" encoding="utf-8" standalone="no"?>
<!DOCTYPE svg PUBLIC "-//W3C//DTD SVG 1.1//EN"
  "http://www.w3.org/Graphics/SVG/1.1/DTD/svg11.dtd">
<svg xmlns:xlink="http://www.w3.org/1999/xlink" width="656.39952pt" height="308.79976pt" viewBox="0 0 656.39952 308.79976" xmlns="http://www.w3.org/2000/svg" version="1.1">
 <metadata>
  <rdf:RDF xmlns:dc="http://purl.org/dc/elements/1.1/" xmlns:cc="http://creativecommons.org/ns#" xmlns:rdf="http://www.w3.org/1999/02/22-rdf-syntax-ns#">
   <cc:Work>
    <dc:type rdf:resource="http://purl.org/dc/dcmitype/StillImage"/>
    <dc:format>image/svg+xml</dc:format>
    <dc:creator>
     <cc:Agent>
      <dc:title>Matplotlib v3.11.1, https://matplotlib.org/</dc:title>
     </cc:Agent>
    </dc:creator>
   </cc:Work>
  </rdf:RDF>
 </metadata>
 <defs>
  <style type="text/css">*{stroke-linejoin: round; stroke-linecap: butt}</style>
 </defs>
 <g id="figure_1">
  <g id="patch_1">
   <path d="M 0 308.79976
L 656.39952 308.79976
L 656.39952 -0
L 0 -0
z
" style="fill: #ffffff"/>
  </g>
  <g id="axes_1">
   <g id="patch_2">
    <path d="M 40.925781 262.597478
L 340.072651 262.597478
L 340.072651 42.319699
L 40.925781 42.319699
z
" style="fill: #ffffff"/>
   </g>
   <g id="matplotlib.axis_1">
    <g id="xtick_1">
     <g id="line2d_1">
      <defs>
       <path id="mbb07bba21b" d="M 0 0
L 0 3.5
" style="stroke: #000000; stroke-width: 0.8"/>
      </defs>
      <g>
       <use xlink:href="#mbb07bba21b" x="90.783593" y="262.597478" style="stroke: #000000; stroke-width: 0.8"/>
      </g>
     </g>
     <g id="text_1">
      <text style="font-size: 10px; font-family: 'DejaVu Sans'; text-anchor: middle" x="90.783593" y="277.195915" transform="rotate(-0 90.783593 277.195915)">Reference AT2</text>
     </g>
    </g>
    <g id="xtick_2">
     <g id="line2d_2">
      <g>
       <use xlink:href="#mbb07bba21b" x="290.214839" y="262.597478" style="stroke: #000000; stroke-width: 0.8"/>
      </g>
     </g>
     <g id="text_2">
      <text style="font-size: 10px; font-family: 'DejaVu Sans'; text-anchor: middle" x="290.214839" y="277.195915" transform="rotate(-0 290.214839 277.195915)">Cldn4/Krt8-labelled</text>
     </g>
    </g>
   </g>
   <g id="matplotlib.axis_2">
    <g id="ytick_1">
     <g id="line2d_3">
      <defs>
       <path id="mca3f6610a3" d="M 0 0
L -3.5 0
" style="stroke: #000000; stroke-width: 0.8"/>
      </defs>
      <g>
       <use xlink:href="#mca3f6610a3" x="40.925781" y="242.303147" style="stroke: #000000; stroke-width: 0.8"/>
      </g>
     </g>
     <g id="text_3">
      <text style="font-size: 10px; font-family: 'DejaVu Sans'; text-anchor: end" x="33.925781" y="246.101976" transform="rotate(-0 33.925781 246.101976)">22</text>
     </g>
    </g>
    <g id="ytick_2">
     <g id="line2d_4">
      <g>
       <use xlink:href="#mca3f6610a3" x="40.925781" y="213.689907" style="stroke: #000000; stroke-width: 0.8"/>
      </g>
     </g>
     <g id="text_4">
      <text style="font-size: 10px; font-family: 'DejaVu Sans'; text-anchor: end" x="33.925781" y="217.488735" transform="rotate(-0 33.925781 217.488735)">24</text>
     </g>
    </g>
    <g id="ytick_3">
     <g id="line2d_5">
      <g>
       <use xlink:href="#mca3f6610a3" x="40.925781" y="185.076666" style="stroke: #000000; stroke-width: 0.8"/>
      </g>
     </g>
     <g id="text_5">
      <text style="font-size: 10px; font-family: 'DejaVu Sans'; text-anchor: end" x="33.925781" y="188.875494" transform="rotate(-0 33.925781 188.875494)">26</text>
     </g>
    </g>
    <g id="ytick_4">
     <g id="line2d_6">
      <g>
       <use xlink:href="#mca3f6610a3" x="40.925781" y="156.463425" style="stroke: #000000; stroke-width: 0.8"/>
      </g>
     </g>
     <g id="text_6">
      <text style="font-size: 10px; font-family: 'DejaVu Sans'; text-anchor: end" x="33.925781" y="160.262253" transform="rotate(-0 33.925781 160.262253)">28</text>
     </g>
    </g>
    <g id="ytick_5">
     <g id="line2d_7">
      <g>
       <use xlink:href="#mca3f6610a3" x="40.925781" y="127.850184" style="stroke: #000000; stroke-width: 0.8"/>
      </g>
     </g>
     <g id="text_7">
      <text style="font-size: 10px; font-family: 'DejaVu Sans'; text-anchor: end" x="33.925781" y="131.649013" transform="rotate(-0 33.925781 131.649013)">30</text>
     </g>
    </g>
    <g id="ytick_6">
     <g id="line2d_8">
      <g>
       <use xlink:href="#mca3f6610a3" x="40.925781" y="99.236944" style="stroke: #000000; stroke-width: 0.8"/>
      </g>
     </g>
     <g id="text_8">
      <text style="font-size: 10px; font-family: 'DejaVu Sans'; text-anchor: end" x="33.925781" y="103.035772" transform="rotate(-0 33.925781 103.035772)">32</text>
     </g>
    </g>
    <g id="ytick_7">
     <g id="line2d_9">
      <g>
       <use xlink:href="#mca3f6610a3" x="40.925781" y="70.623703" style="stroke: #000000; stroke-width: 0.8"/>
      </g>
     </g>
     <g id="text_9">
      <text style="font-size: 10px; font-family: 'DejaVu Sans'; text-anchor: end" x="33.925781" y="74.422531" transform="rotate(-0 33.925781 74.422531)">34</text>
     </g>
    </g>
    <g id="text_10">
     <text style="font-size: 10px; font-family: 'DejaVu Sans'; text-anchor: middle" x="14.798438" y="152.458588" transform="rotate(-90 14.798438 152.458588)">AT2 holdout mean gene detection (%)</text>
    </g>
   </g>
   <g id="line2d_10">
    <path d="M 90.783593 52.361825
L 290.214839 119.495752
" clip-path="url(#pd4174cdca6)" style="fill: none; stroke: #087e8b; stroke-width: 1.5; stroke-linecap: square"/>
   </g>
   <g id="line2d_11">
    <path d="M 90.783593 98.775079
L 290.214839 105.978109
" clip-path="url(#pd4174cdca6)" style="fill: none; stroke: #cf663b; stroke-width: 1.5; stroke-linecap: square"/>
   </g>
   <g id="patch_3">
    <path d="M 40.925781 262.597478
L 40.925781 42.319699
" style="fill: none; stroke: #000000; stroke-width: 0.8; stroke-linejoin: miter; stroke-linecap: square"/>
   </g>
   <g id="patch_4">
    <path d="M 40.925781 262.597478
L 340.072651 262.597478
" style="fill: none; stroke: #000000; stroke-width: 0.8; stroke-linejoin: miter; stroke-linecap: square"/>
   </g>
   <g id="PathCollection_1">
    <defs>
     <path id="mb4800535fd" d="M 0 3.24037
C 0.859356 3.24037 1.683631 2.898944 2.291288 2.291288
C 2.898944 1.683631 3.24037 0.859356 3.24037 0
C 3.24037 -0.859356 2.898944 -1.683631 2.291288 -2.291288
C 1.683631 -2.898944 0.859356 -3.24037 0 -3.24037
C -0.859356 -3.24037 -1.683631 -2.898944 -2.291288 -2.291288
C -2.898944 -1.683631 -3.24037 -0.859356 -3.24037 0
C -3.24037 0.859356 -2.898944 1.683631 -2.291288 2.291288
C -1.683631 2.898944 -0.859356 3.24037 0 3.24037
z
" style="stroke: #087e8b"/>
    </defs>
    <g clip-path="url(#pd4174cdca6)">
     <use xlink:href="#mb4800535fd" x="85.797812" y="52.391325" style="fill: #087e8b; stroke: #087e8b"/>
     <use xlink:href="#mb4800535fd" x="285.229058" y="118.089543" style="fill: #087e8b; stroke: #087e8b"/>
    </g>
   </g>
   <g id="PathCollection_2">
    <defs>
     <path id="m16ff40d02e" d="M 0 4.582576
L 4.582576 0
L 0 -4.582576
L -4.582576 0
z
" style="stroke: #087e8b"/>
    </defs>
    <g clip-path="url(#pd4174cdca6)">
     <use xlink:href="#m16ff40d02e" x="95.769374" y="52.332325" style="fill: #087e8b; stroke: #087e8b"/>
     <use xlink:href="#m16ff40d02e" x="295.20062" y="120.901962" style="fill: #087e8b; stroke: #087e8b"/>
    </g>
   </g>
   <g id="PathCollection_3">
    <defs>
     <path id="maf9cdb5bdf" d="M 0 3.24037
C 0.859356 3.24037 1.683631 2.898944 2.291288 2.291288
C 2.898944 1.683631 3.24037 0.859356 3.24037 0
C 3.24037 -0.859356 2.898944 -1.683631 2.291288 -2.291288
C 1.683631 -2.898944 0.859356 -3.24037 0 -3.24037
C -0.859356 -3.24037 -1.683631 -2.898944 -2.291288 -2.291288
C -2.898944 -1.683631 -3.24037 -0.859356 -3.24037 0
C -3.24037 0.859356 -2.898944 1.683631 -2.291288 2.291288
C -1.683631 2.898944 -0.859356 3.24037 0 3.24037
z
" style="stroke: #cf663b"/>
    </defs>
    <g clip-path="url(#pd4174cdca6)">
     <use xlink:href="#maf9cdb5bdf" x="85.797812" y="98.554044" style="fill: #cf663b; stroke: #cf663b"/>
     <use xlink:href="#maf9cdb5bdf" x="285.229058" y="108.530731" style="fill: #cf663b; stroke: #cf663b"/>
    </g>
   </g>
   <g id="PathCollection_4">
    <defs>
     <path id="me1add5c698" d="M 0 4.582576
L 4.582576 0
L 0 -4.582576
L -4.582576 0
z
" style="stroke: #cf663b"/>
    </defs>
    <g clip-path="url(#pd4174cdca6)">
     <use xlink:href="#me1add5c698" x="95.769374" y="98.996113" style="fill: #cf663b; stroke: #cf663b"/>
     <use xlink:href="#me1add5c698" x="295.20062" y="103.425486" style="fill: #cf663b; stroke: #cf663b"/>
    </g>
   </g>
   <g id="text_11">
    <text style="font-weight: 700; font-size: 12px; font-family: 'DejaVu Sans'; text-anchor: middle" x="190.499216" y="36.319699" transform="rotate(-0 190.499216 36.319699)">a  P9, uninjured</text>
   </g>
  </g>
  <g id="axes_2">
   <g id="patch_5">
    <path d="M 350.052651 262.597478
L 649.19952 262.597478
L 649.19952 42.319699
L 350.052651 42.319699
z
" style="fill: #ffffff"/>
   </g>
   <g id="matplotlib.axis_3">
    <g id="xtick_3">
     <g id="line2d_12">
      <g>
       <use xlink:href="#mbb07bba21b" x="399.910462" y="262.597478" style="stroke: #000000; stroke-width: 0.8"/>
      </g>
     </g>
     <g id="text_12">
      <text style="font-size: 10px; font-family: 'DejaVu Sans'; text-anchor: middle" x="399.910462" y="277.195915" transform="rotate(-0 399.910462 277.195915)">Reference AT2</text>
     </g>
    </g>
    <g id="xtick_4">
     <g id="line2d_13">
      <g>
       <use xlink:href="#mbb07bba21b" x="599.341708" y="262.597478" style="stroke: #000000; stroke-width: 0.8"/>
      </g>
     </g>
     <g id="text_13">
      <text style="font-size: 10px; font-family: 'DejaVu Sans'; text-anchor: middle" x="599.341708" y="277.195915" transform="rotate(-0 599.341708 277.195915)">Cldn4/Krt8-labelled</text>
     </g>
    </g>
   </g>
   <g id="matplotlib.axis_4">
    <g id="ytick_8">
     <g id="line2d_14">
      <g>
       <use xlink:href="#mca3f6610a3" x="350.052651" y="242.303147" style="stroke: #000000; stroke-width: 0.8"/>
      </g>
     </g>
    </g>
    <g id="ytick_9">
     <g id="line2d_15">
      <g>
       <use xlink:href="#mca3f6610a3" x="350.052651" y="213.689907" style="stroke: #000000; stroke-width: 0.8"/>
      </g>
     </g>
    </g>
    <g id="ytick_10">
     <g id="line2d_16">
      <g>
       <use xlink:href="#mca3f6610a3" x="350.052651" y="185.076666" style="stroke: #000000; stroke-width: 0.8"/>
      </g>
     </g>
    </g>
    <g id="ytick_11">
     <g id="line2d_17">
      <g>
       <use xlink:href="#mca3f6610a3" x="350.052651" y="156.463425" style="stroke: #000000; stroke-width: 0.8"/>
      </g>
     </g>
    </g>
    <g id="ytick_12">
     <g id="line2d_18">
      <g>
       <use xlink:href="#mca3f6610a3" x="350.052651" y="127.850184" style="stroke: #000000; stroke-width: 0.8"/>
      </g>
     </g>
    </g>
    <g id="ytick_13">
     <g id="line2d_19">
      <g>
       <use xlink:href="#mca3f6610a3" x="350.052651" y="99.236944" style="stroke: #000000; stroke-width: 0.8"/>
      </g>
     </g>
    </g>
    <g id="ytick_14">
     <g id="line2d_20">
      <g>
       <use xlink:href="#mca3f6610a3" x="350.052651" y="70.623703" style="stroke: #000000; stroke-width: 0.8"/>
      </g>
     </g>
    </g>
   </g>
   <g id="line2d_21">
    <path d="M 399.910462 125.546553
L 599.341708 241.555258
" clip-path="url(#p6334e19e5a)" style="fill: none; stroke: #087e8b; stroke-width: 1.5; stroke-linecap: square"/>
   </g>
   <g id="line2d_22">
    <path d="M 399.910462 162.966409
L 599.341708 196.688986
" clip-path="url(#p6334e19e5a)" style="fill: none; stroke: #cf663b; stroke-width: 1.5; stroke-linecap: square"/>
   </g>
   <g id="patch_6">
    <path d="M 350.052651 262.597478
L 350.052651 42.319699
" style="fill: none; stroke: #000000; stroke-width: 0.8; stroke-linejoin: miter; stroke-linecap: square"/>
   </g>
   <g id="patch_7">
    <path d="M 350.052651 262.597478
L 649.19952 262.597478
" style="fill: none; stroke: #000000; stroke-width: 0.8; stroke-linejoin: miter; stroke-linecap: square"/>
   </g>
   <g id="PathCollection_5">
    <g clip-path="url(#p6334e19e5a)">
     <use xlink:href="#mb4800535fd" x="394.924681" y="125.524002" style="fill: #087e8b; stroke: #087e8b"/>
     <use xlink:href="#mb4800535fd" x="594.355927" y="252.584851" style="fill: #087e8b; stroke: #087e8b"/>
    </g>
   </g>
   <g id="PathCollection_6">
    <g clip-path="url(#p6334e19e5a)">
     <use xlink:href="#m16ff40d02e" x="404.896243" y="125.569103" style="fill: #087e8b; stroke: #087e8b"/>
     <use xlink:href="#m16ff40d02e" x="604.32749" y="230.525666" style="fill: #087e8b; stroke: #087e8b"/>
    </g>
   </g>
   <g id="PathCollection_7">
    <g clip-path="url(#p6334e19e5a)">
     <use xlink:href="#maf9cdb5bdf" x="394.924681" y="163.16781" style="fill: #cf663b; stroke: #cf663b"/>
     <use xlink:href="#maf9cdb5bdf" x="594.355927" y="195.838003" style="fill: #cf663b; stroke: #cf663b"/>
    </g>
   </g>
   <g id="PathCollection_8">
    <g clip-path="url(#p6334e19e5a)">
     <use xlink:href="#me1add5c698" x="404.896243" y="162.765007" style="fill: #cf663b; stroke: #cf663b"/>
     <use xlink:href="#me1add5c698" x="604.32749" y="197.539968" style="fill: #cf663b; stroke: #cf663b"/>
    </g>
   </g>
   <g id="text_14">
    <text style="font-weight: 700; font-size: 12px; font-family: 'DejaVu Sans'; text-anchor: middle" x="499.626085" y="36.319699" transform="rotate(-0 499.626085 36.319699)">b  Adult, SeV injury</text>
   </g>
  </g>
  <g id="text_15">
   <text style="font-size: 14px; font-family: 'DejaVu Sans'; text-anchor: middle" x="328.19976" y="17.837813" transform="rotate(-0 328.19976 17.837813)">AT2 programme contrasts across genotype and cell state</text>
  </g>
  <g id="legend_1">
   <g id="line2d_23">
    <path d="M 147.458354 293.897416
L 157.458354 293.897416
L 167.458354 293.897416
" style="fill: none; stroke: #087e8b; stroke-width: 1.5; stroke-linecap: square"/>
   </g>
   <g id="text_16">
    <text style="font-size: 10px; font-family: 'DejaVu Sans'; text-anchor: start" x="175.458354" y="297.397416" transform="rotate(-0 175.458354 297.397416)">Control</text>
   </g>
   <g id="line2d_24">
    <path d="M 231.605229 293.897416
L 241.605229 293.897416
L 251.605229 293.897416
" style="fill: none; stroke: #cf663b; stroke-width: 1.5; stroke-linecap: square"/>
   </g>
   <g id="text_17">
    <text style="font-size: 10px; font-family: 'DejaVu Sans'; text-anchor: start" x="259.605229" y="297.397416" transform="rotate(-0 259.605229 297.397416)">Cebpa mutant</text>
   </g>
   <g id="line2d_25">
    <defs>
     <path id="m4c54c4d747" d="M 0 3
C 0.795609 3 1.55874 2.683901 2.12132 2.12132
C 2.683901 1.55874 3 0.795609 3 0
C 3 -0.795609 2.683901 -1.55874 2.12132 -2.12132
C 1.55874 -2.683901 0.795609 -3 0 -3
C -0.795609 -3 -1.55874 -2.683901 -2.12132 -2.12132
C -2.683901 -1.55874 -3 -0.795609 -3 0
C -3 0.795609 -2.683901 1.55874 -2.12132 2.12132
C -1.55874 2.683901 -0.795609 3 0 3
z
" style="stroke: #666666"/>
    </defs>
    <g>
     <use xlink:href="#m4c54c4d747" x="361.128666" y="293.897416" style="fill: #666666; stroke: #666666"/>
    </g>
   </g>
   <g id="text_18">
    <text style="font-size: 10px; font-family: 'DejaVu Sans'; text-anchor: start" x="379.128666" y="297.397416" transform="rotate(-0 379.128666 297.397416)">Seed 17</text>
   </g>
   <g id="line2d_26">
    <defs>
     <path id="m9f631c6943" d="M 0 4.242641
L 4.242641 0
L 0 -4.242641
L -4.242641 0
z
" style="stroke: #666666; stroke-linejoin: miter"/>
    </defs>
    <g>
     <use xlink:href="#m9f631c6943" x="450.034916" y="293.897416" style="fill: #666666; stroke: #666666; stroke-linejoin: miter"/>
    </g>
   </g>
   <g id="text_19">
    <text style="font-size: 10px; font-family: 'DejaVu Sans'; text-anchor: start" x="468.034916" y="297.397416" transform="rotate(-0 468.034916 297.397416)">Seed 29</text>
   </g>
  </g>
 </g>
 <defs>
  <clipPath id="pd4174cdca6">
   <rect x="40.925781" y="42.319699" width="299.146869" height="220.277779"/>
  </clipPath>
  <clipPath id="p6334e19e5a">
   <rect x="350.052651" y="42.319699" width="299.146869" height="220.277779"/>
  </clipPath>
 </defs>
</svg>
